<svg id="Слой_1" data-name="Слой 1" xmlns="http://www.w3.org/2000/svg" viewBox="0 0 33.7 21.74">
  <defs>
    <style>
      .cls-1 {
        fill: #f50057;
      }
    </style>
  </defs>
  <title>alleo-logo-alt-small</title>
  <g>
    <path d="M287,573.7V594h-5.38v-2.93a11.24,11.24,0,0,1-3,2.38,8.59,8.59,0,0,1-4.37,1.08A11,11,0,0,1,269,593.3a8.94,8.94,0,0,1-3.65-3.62,11.72,11.72,0,0,1-1.34-5.81,11.86,11.86,0,0,1,1.39-5.83,9.89,9.89,0,0,1,8.83-5.26,8.3,8.3,0,0,1,7.39,3.65L282,573.7H287ZM279.45,589a6,6,0,0,0,2.14-3.19v-4.42a5.61,5.61,0,0,0-2.23-3,6.52,6.52,0,0,0-3.82-1.15,5.84,5.84,0,0,0-4.32,1.8,6.25,6.25,0,0,0-1.78,4.58,6.53,6.53,0,0,0,3.17,5.66,6,6,0,0,0,3.12.86A6,6,0,0,0,279.45,589Z" transform="translate(-264.02 -572.78)"/>
    <path class="cls-1" d="M292.84,589a2.84,2.84,0,0,1,2-.86,2.74,2.74,0,0,1,1.94.86,2.92,2.92,0,0,1-1.94,5,2.92,2.92,0,0,1-2-.82,2.73,2.73,0,0,1-.89-2.11A2.78,2.78,0,0,1,292.84,589Z" transform="translate(-264.02 -572.78)"/>
  </g>
</svg>
