<svg id="Слой_1" data-name="Слой 1" xmlns="http://www.w3.org/2000/svg" viewBox="0 0 111.45 37.97">
  <defs>
    <style>
      .cls-1 {
        fill: #fff;
      }

      .cls-2 {
        fill: #f50057;
      }
    </style>
  </defs>
  <title>alleo-logo-alt-white</title>
  <g>
    <path class="cls-1" d="M326,634.7V655h-5.38v-2.93a11.26,11.26,0,0,1-3,2.38,8.59,8.59,0,0,1-4.37,1.08A11,11,0,0,1,308,654.3a8.93,8.93,0,0,1-3.65-3.62,11.72,11.72,0,0,1-1.34-5.81,11.86,11.86,0,0,1,1.39-5.83,9.89,9.89,0,0,1,8.83-5.26,8.3,8.3,0,0,1,7.39,3.65L321,634.7H326ZM318.45,650a6,6,0,0,0,2.14-3.19v-4.42a5.61,5.61,0,0,0-2.23-3,6.52,6.52,0,0,0-3.82-1.15,5.84,5.84,0,0,0-4.32,1.8,6.25,6.25,0,0,0-1.78,4.58,6.53,6.53,0,0,0,3.17,5.66,6,6,0,0,0,3.12.86A6,6,0,0,0,318.45,650Z" transform="translate(-303.02 -617.56)"/>
    <path class="cls-1" d="M338.78,617.56V655H333.4V617.56h5.38Z" transform="translate(-303.02 -617.56)"/>
    <path class="cls-1" d="M351.54,617.56V655h-5.38V617.56h5.38Z" transform="translate(-303.02 -617.56)"/>
    <path class="cls-1" d="M373.29,649.34l2.45,4a15.82,15.82,0,0,1-3.5,1.61,11.77,11.77,0,0,1-3.6.6,12.56,12.56,0,0,1-6.07-1.39,9.68,9.68,0,0,1-3.94-3.84,11.32,11.32,0,0,1-1.37-5.62,10.24,10.24,0,0,1,1.54-5.47,11.17,11.17,0,0,1,4.18-4,11.68,11.68,0,0,1,5.76-1.46,10,10,0,0,1,6.86,2.42,12.08,12.08,0,0,1,3.65,6.84l-15.65,5.28a5.44,5.44,0,0,0,2.16,1.92,6.55,6.55,0,0,0,3,.67A8,8,0,0,0,373.29,649.34Zm-9.14-9.55a6.6,6.6,0,0,0-1.61,4.61,5.19,5.19,0,0,0,0,.82l10.66-3.79a6.1,6.1,0,0,0-1.82-2.45,4.84,4.84,0,0,0-3.12-1A5.35,5.35,0,0,0,364.14,639.78Z" transform="translate(-303.02 -617.56)"/>
    <path class="cls-1" d="M384.3,639.11a10.37,10.37,0,0,1,4.06-3.91,12.11,12.11,0,0,1,5.9-1.42,12,12,0,0,1,5.88,1.42,10,10,0,0,1,4,3.89,11.74,11.74,0,0,1,0,11.09,10.13,10.13,0,0,1-4,3.91,11.92,11.92,0,0,1-5.93,1.44,12.72,12.72,0,0,1-5.86-1.32,9.76,9.76,0,0,1-4.06-3.79,11.13,11.13,0,0,1-1.46-5.78A10.71,10.71,0,0,1,384.3,639.11Zm5.64,10.15a5.41,5.41,0,0,0,4.18,1.85,5.48,5.48,0,0,0,4.25-1.82,6.59,6.59,0,0,0,1.66-4.61,6.68,6.68,0,0,0-1.66-4.63,5.45,5.45,0,0,0-4.25-1.85,5.35,5.35,0,0,0-4.18,1.9,6.67,6.67,0,0,0-1.68,4.58A6.56,6.56,0,0,0,389.94,649.26Z" transform="translate(-303.02 -617.56)"/>
    <path class="cls-2" d="M409.6,650a2.84,2.84,0,0,1,2-.86,2.74,2.74,0,0,1,1.94.86,2.92,2.92,0,0,1-1.94,5,2.92,2.92,0,0,1-2-.82,2.74,2.74,0,0,1-.89-2.11A2.78,2.78,0,0,1,409.6,650Z" transform="translate(-303.02 -617.56)"/>
  </g>
</svg>
