<?xml version="1.0" encoding="utf-8"?>
<!-- Generator: Adobe Illustrator 26.0.1, SVG Export Plug-In . SVG Version: 6.00 Build 0)  -->
<svg version="1.1" id="Слой_1" xmlns="http://www.w3.org/2000/svg" xmlns:xlink="http://www.w3.org/1999/xlink" x="0px" y="0px"
	 viewBox="0 0 226.9 43.1" style="enable-background:new 0 0 226.9 43.1;" xml:space="preserve">
<style type="text/css">
	.st0{fill:#FFFFFF;}
	.st1{fill:#20A39E;}
</style>
<path d="M17.4,124.3c-0.5,0-0.9-0.1-1.2-0.4c-0.3-0.3-0.4-0.7-0.4-1.2v-4.1H15v-0.1h0.3c0.2-0.1,0.5-0.1,0.6-0.2
	c0.2-0.1,0.4-0.2,0.5-0.4l1-1.1h0.1v1.7h1.3v0.2h-1.4v4.3c0,0.3,0.1,0.5,0.2,0.6s0.3,0.2,0.5,0.2s0.3,0,0.4-0.1s0.3-0.2,0.4-0.3
	l0.1,0.1c-0.2,0.3-0.4,0.5-0.7,0.6C18.1,124.2,17.8,124.3,17.4,124.3z"/>
<path d="M22.5,124.3c-0.6,0-1.1-0.1-1.6-0.4s-0.8-0.6-1-1.1s-0.4-1-0.4-1.6s0.1-1.2,0.4-1.6c0.3-0.5,0.6-0.8,1.1-1.1
	c0.5-0.2,1-0.4,1.5-0.4s1.1,0.1,1.5,0.4c0.4,0.2,0.8,0.6,1.1,1c0.3,0.5,0.4,1,0.4,1.6s-0.1,1.2-0.4,1.6c-0.2,0.5-0.6,0.8-1,1.1
	S23.1,124.3,22.5,124.3z M22.5,124.1c0.3,0,0.5-0.1,0.7-0.2c0.2-0.2,0.3-0.4,0.4-0.9c0.1-0.4,0.1-1,0.1-1.7c0-0.8,0-1.3-0.1-1.7
	s-0.2-0.7-0.4-0.9c-0.2-0.2-0.4-0.2-0.7-0.2c-0.3,0-0.5,0.1-0.7,0.2c-0.2,0.2-0.3,0.4-0.4,0.9c-0.1,0.4-0.1,1-0.1,1.7s0,1.3,0.1,1.7
	c0.1,0.4,0.2,0.7,0.4,0.9C22,124,22.2,124.1,22.5,124.1z"/>
<path d="M26,124.1L26,124.1l0.2-0.1c0.3-0.1,0.4-0.3,0.4-0.6v-3.8c0-0.2,0-0.3-0.1-0.4s-0.2-0.1-0.3-0.2H26v-0.1l2.1-0.7l0.1,0.1
	l0.1,0.7c0.3-0.2,0.6-0.5,0.9-0.6s0.7-0.2,1-0.2c0.5,0,0.9,0.1,1.2,0.4c0.3,0.3,0.4,0.7,0.4,1.3v3.5c0,0.3,0.2,0.5,0.5,0.6h0.1v0.1
	h-2.8V124h0.2c0.3-0.1,0.4-0.3,0.4-0.6v-3.8c0-0.5-0.3-0.8-0.8-0.8c-0.4,0-0.7,0.2-1.2,0.5v4.1c0,0.3,0.1,0.5,0.4,0.6h0.1v0.1
	C28.7,124.1,26,124.1,26,124.1z"/>
<path d="M33.6,127c-0.3,0-0.6-0.1-0.8-0.2s-0.3-0.4-0.3-0.6s0.1-0.4,0.2-0.5c0.2-0.1,0.3-0.2,0.5-0.2s0.4,0,0.5,0.1s0.3,0.2,0.4,0.4
	l0.1,0.1c0.2,0.2,0.4,0.2,0.5,0c0.1-0.1,0.2-0.3,0.2-0.5c0.1-0.2,0.2-0.5,0.3-0.8l-2.3-5.6c-0.1-0.2-0.1-0.3-0.2-0.4
	s-0.2-0.2-0.3-0.2l-0.2-0.1v-0.1h3v0.1l-0.2,0.1c-0.2,0.1-0.3,0.1-0.3,0.3s0,0.3,0.1,0.5l1.2,3.2l1.2-3.3c0.1-0.2,0.1-0.3,0.1-0.5
	c0-0.1-0.1-0.2-0.3-0.3l-0.3-0.1v-0.1h1.7v0.1l-0.3,0.1c-0.2,0.1-0.3,0.1-0.4,0.2c-0.1,0.1-0.1,0.2-0.2,0.4l-1.9,5.3
	c-0.3,0.8-0.6,1.5-0.9,1.9S34.1,127,33.6,127z"/>
<path d="M41.7,127l-2-0.2v-0.1h0.1c0.3-0.1,0.5-0.3,0.5-0.6v-6.4c0-0.2,0-0.3-0.1-0.4s-0.2-0.1-0.3-0.2h-0.2V119l2.1-0.5l0.1,0.1
	v1.7v1.2c0.3-0.2,0.6-0.3,0.9-0.4c0.3-0.1,0.6-0.1,0.9-0.1c0.5,0,0.9,0.1,1.2,0.3s0.6,0.5,0.8,1c0.2,0.4,0.3,1,0.3,1.7
	s-0.1,1.3-0.3,1.7s-0.5,0.8-0.9,1S44,127,43.5,127c-0.3,0-0.6,0-0.9-0.1c-0.3-0.1-0.6-0.2-0.8-0.3L41.7,127z M43,126.6
	c0.3,0,0.5-0.1,0.7-0.2s0.3-0.4,0.5-0.8c0.1-0.4,0.2-0.9,0.2-1.6s-0.1-1.2-0.2-1.6s-0.2-0.6-0.4-0.8c-0.2-0.1-0.4-0.2-0.7-0.2
	c-0.4,0-0.7,0.1-1,0.3v4.6c0.2,0.1,0.3,0.2,0.5,0.2C42.6,126.6,42.8,126.6,43,126.6z"/>
<path d="M48.7,127c-0.3,0-0.6-0.1-0.9-0.2c-0.3-0.1-0.5-0.3-0.6-0.6c-0.1-0.3-0.2-0.6-0.2-1.1V122c0-0.2,0-0.3-0.1-0.4
	s-0.2-0.1-0.3-0.2h-0.1v-0.1l2.1-0.4l0.1,0.1l-0.1,1.7v2.9c0,0.3,0.1,0.4,0.2,0.6c0.1,0.1,0.3,0.2,0.6,0.2s0.4,0,0.6-0.1
	c0.2-0.1,0.4-0.2,0.5-0.3v-3.9c0-0.2,0-0.3-0.1-0.4s-0.2-0.1-0.3-0.2H50v-0.1l2.1-0.5l0.1,0.1v1.7v3.3c0,0.2,0,0.3,0.1,0.4
	c0,0.1,0.2,0.2,0.3,0.2h0.1v0.1l-2.1,0.1l-0.1-0.7c-0.3,0.2-0.6,0.4-0.9,0.5C49.5,126.9,49.1,127,48.7,127z"/>
<path d="M56.3,127c-0.5,0-1-0.1-1.5-0.4c-0.4-0.2-0.8-0.6-1.1-1c-0.3-0.5-0.4-1-0.4-1.7c0-0.6,0.1-1.2,0.4-1.7
	c0.3-0.5,0.7-0.8,1.1-1.1c0.5-0.2,1-0.4,1.6-0.4c0.5,0,0.9,0.1,1.2,0.2c0.3,0.2,0.6,0.3,0.7,0.6s0.3,0.5,0.3,0.8
	c0,0.2-0.1,0.4-0.2,0.5s-0.3,0.2-0.5,0.2s-0.4-0.1-0.6-0.3c-0.1-0.2-0.2-0.4-0.3-0.7c0-0.2,0-0.3,0-0.5c0-0.1,0-0.2,0-0.4
	c0-0.1-0.1-0.2-0.1-0.3c-0.1,0-0.2-0.1-0.3-0.1c-0.5,0-0.9,0.2-1.1,0.6c-0.3,0.4-0.4,1.1-0.4,2c0,0.8,0.1,1.4,0.4,1.9
	s0.8,0.6,1.4,0.6c0.4,0,0.7-0.1,0.9-0.2s0.5-0.3,0.7-0.6l0.1,0.1c-0.2,0.5-0.5,0.8-0.9,1.1S56.9,127,56.3,127z"/>
<path d="M59,126.8L59,126.8L59,126.8c0.4-0.2,0.5-0.4,0.5-0.7v-6.4c0-0.2,0-0.3-0.1-0.4s-0.2-0.1-0.3-0.2h-0.2V119l2.1-0.5l0.2,0.1
	v1.7v1.5c0.3-0.2,0.6-0.4,0.9-0.6s0.7-0.2,1.1-0.2c0.5,0,0.9,0.1,1.2,0.4s0.5,0.8,0.5,1.4v3.4c0,0.2,0,0.3,0.1,0.4s0.2,0.2,0.3,0.2
	h0.1v0.1h-2.8v-0.1h0.1c0.3-0.1,0.4-0.3,0.4-0.6v-3.8c0-0.3-0.1-0.5-0.2-0.7c-0.1-0.1-0.3-0.2-0.6-0.2c-0.2,0-0.4,0-0.6,0.1
	c-0.2,0.1-0.4,0.2-0.6,0.4v4.2c0,0.3,0.1,0.5,0.4,0.6h0.1v0.1H59V126.8z"/>
<path d="M69,120.9c0.5,0,1,0.1,1.3,0.3s0.7,0.5,0.8,0.9c0.2,0.4,0.3,0.8,0.3,1.2c0,0.1,0,0.2,0,0.3s0,0.2,0,0.2h-3.6
	c0,0.9,0.2,1.5,0.5,1.9s0.7,0.6,1.3,0.6c0.4,0,0.7-0.1,1-0.2s0.5-0.3,0.7-0.6l0.1,0.1c-0.2,0.4-0.6,0.8-1,1s-0.9,0.4-1.5,0.4
	s-1.1-0.1-1.5-0.4c-0.4-0.2-0.8-0.6-1-1.1s-0.4-1-0.4-1.6c0-0.7,0.1-1.2,0.4-1.7s0.7-0.8,1.1-1S68.5,120.9,69,120.9z M68.9,121.1
	c-0.2,0-0.4,0.1-0.6,0.2s-0.3,0.4-0.4,0.7c-0.1,0.4-0.1,0.9-0.2,1.5h2.1c0.1-0.9,0-1.5-0.1-1.9C69.6,121.3,69.3,121.1,68.9,121.1z"
	/>
<path d="M72,126.8L72,126.8l0.2-0.1c0.2,0,0.3-0.1,0.3-0.2c0.1-0.1,0.1-0.2,0.1-0.4v-3.8c0-0.2,0-0.3-0.1-0.4s-0.2-0.1-0.3-0.2H72
	v-0.1l2.1-0.7l0.1,0.1l0.1,1v0.1c0.1-0.2,0.3-0.4,0.4-0.6c0.2-0.2,0.4-0.3,0.6-0.5c0.2-0.1,0.4-0.2,0.7-0.2c0.3,0,0.5,0.1,0.7,0.3
	s0.2,0.4,0.2,0.6c0,0.3-0.1,0.5-0.2,0.6c-0.2,0.1-0.3,0.2-0.6,0.2c-0.3,0-0.6-0.2-0.9-0.5l0,0c-0.1-0.1-0.2-0.2-0.3-0.2
	c-0.1,0-0.2,0-0.3,0.1c-0.1,0.1-0.1,0.2-0.2,0.3c-0.1,0.1-0.1,0.2-0.2,0.3v3.3c0,0.3,0.1,0.5,0.4,0.6l0.4,0.1v0.1h-3V126.8z"/>
<g>
	<path d="M12.1,109.1c-0.5,0-0.9-0.1-1.2-0.4s-0.4-0.7-0.4-1.2v-4.1H9.6v-0.1h0.3c0.2-0.1,0.5-0.1,0.6-0.2c0.2-0.1,0.4-0.2,0.5-0.4
		l1-1.1h0.1v1.7h1.3v0.2H12v4.3c0,0.3,0.1,0.5,0.2,0.6c0.1,0.1,0.3,0.2,0.5,0.2s0.3,0,0.4-0.1s0.3-0.2,0.4-0.3l0.1,0.1
		c-0.2,0.3-0.4,0.5-0.7,0.6C12.8,109.1,12.5,109.1,12.1,109.1z"/>
	<path d="M17.1,109.1c-0.6,0-1.1-0.1-1.6-0.4s-0.8-0.6-1-1.1s-0.4-1-0.4-1.6s0.1-1.2,0.4-1.6c0.3-0.5,0.6-0.8,1.1-1.1
		c0.5-0.2,1-0.4,1.5-0.4s1.1,0.1,1.5,0.4c0.4,0.2,0.8,0.6,1.1,1c0.3,0.5,0.4,1,0.4,1.6s-0.1,1.2-0.4,1.6c-0.2,0.5-0.6,0.8-1,1.1
		S17.7,109.1,17.1,109.1z M17.1,108.9c0.3,0,0.5-0.1,0.7-0.2c0.2-0.2,0.3-0.4,0.4-0.9c0.1-0.4,0.1-1,0.1-1.7c0-0.8,0-1.3-0.1-1.7
		s-0.2-0.7-0.4-0.9c-0.2-0.2-0.4-0.2-0.7-0.2c-0.3,0-0.5,0.1-0.7,0.2c-0.2,0.2-0.3,0.4-0.4,0.9c-0.1,0.4-0.1,1-0.1,1.7
		s0,1.3,0.1,1.7c0.1,0.4,0.2,0.7,0.4,0.9C16.6,108.8,16.8,108.9,17.1,108.9z"/>
	<path d="M20.6,109L20.6,109l0.2-0.1c0.3-0.1,0.4-0.3,0.4-0.6v-3.8c0-0.2,0-0.3-0.1-0.4s-0.2-0.1-0.3-0.2h-0.2v-0.1l2.1-0.7l0.1,0.1
		l0.1,0.7c0.3-0.2,0.6-0.5,0.9-0.6s0.7-0.2,1-0.2c0.5,0,0.9,0.1,1.2,0.4c0.3,0.3,0.4,0.7,0.4,1.3v3.5c0,0.3,0.2,0.5,0.5,0.6H27v0.1
		h-2.8v-0.1h0.2c0.3-0.1,0.4-0.3,0.4-0.6v-3.8c0-0.5-0.3-0.8-0.8-0.8c-0.4,0-0.7,0.2-1.2,0.5v4.1c0,0.3,0.1,0.5,0.4,0.6h0.1v0.1
		H20.6z"/>
	<path d="M28.3,111.8c-0.3,0-0.6-0.1-0.8-0.2s-0.3-0.4-0.3-0.6s0.1-0.4,0.2-0.5c0.2-0.1,0.3-0.2,0.5-0.2s0.4,0,0.5,0.1
		s0.3,0.2,0.4,0.4l0.1,0.1c0.2,0.2,0.4,0.2,0.5,0c0.1-0.1,0.2-0.3,0.2-0.5c0.1-0.2,0.2-0.5,0.3-0.8l-2.3-5.6
		c-0.1-0.2-0.1-0.3-0.2-0.4s-0.2-0.2-0.3-0.2l-0.2-0.1v-0.1h3v0.1l-0.2,0.1c-0.2,0.1-0.3,0.1-0.3,0.3s0,0.3,0.1,0.5l1.2,3.2l1.2-3.3
		c0.1-0.2,0.1-0.3,0.1-0.5c0-0.1-0.1-0.2-0.3-0.3l-0.3-0.1v-0.1h1.7v0.1l-0.3,0.1c-0.2,0.1-0.3,0.1-0.4,0.2
		c-0.1,0.1-0.1,0.2-0.2,0.4l-1.9,5.3c-0.3,0.8-0.6,1.5-0.9,1.9S28.8,111.8,28.3,111.8z"/>
	<path d="M38.3,109.1l-2-0.2v-0.1h0.1c0.3-0.1,0.5-0.3,0.5-0.6v-6.4c0-0.2,0-0.3-0.1-0.4s-0.2-0.1-0.3-0.2h-0.2v-0.1l2.1-0.5
		l0.1,0.1v1.7v1.2c0.3-0.2,0.6-0.3,0.9-0.4c0.3-0.1,0.6-0.1,0.9-0.1c0.5,0,0.9,0.1,1.2,0.3s0.6,0.5,0.8,1c0.2,0.4,0.3,1,0.3,1.7
		s-0.1,1.3-0.3,1.7s-0.5,0.8-0.9,1s-0.8,0.3-1.3,0.3c-0.3,0-0.6,0-0.9-0.1c-0.3-0.1-0.6-0.2-0.8-0.3L38.3,109.1z M39.6,108.7
		c0.3,0,0.5-0.1,0.7-0.2s0.3-0.4,0.5-0.8c0.1-0.4,0.2-0.9,0.2-1.6s-0.1-1.2-0.2-1.6s-0.2-0.6-0.4-0.8c-0.2-0.1-0.4-0.2-0.7-0.2
		c-0.4,0-0.7,0.1-1,0.3v4.6c0.2,0.1,0.3,0.2,0.5,0.2C39.2,108.7,39.4,108.7,39.6,108.7z"/>
	<path d="M45.3,109.1c-0.3,0-0.6-0.1-0.9-0.2c-0.3-0.1-0.5-0.3-0.6-0.6c-0.1-0.3-0.2-0.6-0.2-1.1v-3.1c0-0.2,0-0.3-0.1-0.4
		s-0.2-0.1-0.3-0.2h-0.1v-0.1l2.1-0.4l0.1,0.1l-0.1,1.7v2.9c0,0.3,0.1,0.4,0.2,0.6c0.1,0.1,0.3,0.2,0.6,0.2s0.4,0,0.6-0.1
		c0.2-0.1,0.4-0.2,0.5-0.3v-3.9c0-0.2,0-0.3-0.1-0.4s-0.2-0.1-0.3-0.2h-0.1v-0.1l2.1-0.5l0.1,0.1v1.7v3.3c0,0.2,0,0.3,0.1,0.4
		c0,0.1,0.2,0.2,0.3,0.2h0.1v0.1l-2.1,0.1l-0.1-0.7c-0.3,0.2-0.6,0.4-0.9,0.5C46.1,109.1,45.7,109.1,45.3,109.1z"/>
	<path d="M52.9,109.1c-0.5,0-1-0.1-1.5-0.4c-0.4-0.2-0.8-0.6-1.1-1c-0.3-0.5-0.4-1-0.4-1.7c0-0.6,0.1-1.2,0.4-1.7
		c0.3-0.5,0.7-0.8,1.1-1.1s1-0.4,1.6-0.4c0.5,0,0.9,0.1,1.2,0.2c0.3,0.2,0.6,0.3,0.7,0.6s0.3,0.5,0.3,0.8c0,0.2-0.1,0.4-0.2,0.5
		c-0.1,0.1-0.3,0.2-0.5,0.2s-0.4-0.1-0.6-0.3s-0.2-0.4-0.3-0.7c0-0.2,0-0.3,0-0.5c0-0.1,0-0.2,0-0.4c0-0.1-0.1-0.2-0.2-0.3
		c-0.1,0-0.2-0.1-0.3-0.1c-0.5,0-0.9,0.2-1.1,0.6c-0.3,0.4-0.4,1.1-0.4,2c0,0.8,0.1,1.4,0.4,1.9c0.3,0.4,0.8,0.6,1.4,0.6
		c0.4,0,0.7-0.1,0.9-0.2s0.5-0.3,0.7-0.6l0.1,0.1c-0.2,0.5-0.5,0.8-0.9,1.1S53.5,109.1,52.9,109.1z"/>
	<path d="M55.6,109L55.6,109L55.6,109c0.4-0.2,0.5-0.4,0.5-0.7v-6.4c0-0.2,0-0.3-0.1-0.4s-0.2-0.1-0.3-0.2h-0.2v-0.1l2.1-0.5
		l0.2,0.1v1.7v1.5c0.3-0.2,0.6-0.4,0.9-0.6s0.7-0.2,1.1-0.2c0.5,0,0.9,0.1,1.2,0.4s0.5,0.8,0.5,1.4v3.4c0,0.2,0,0.3,0.1,0.4
		s0.2,0.2,0.3,0.2H62v0.1h-2.8V109h0.1c0.3-0.1,0.4-0.3,0.4-0.6v-3.8c0-0.3-0.1-0.5-0.2-0.7c-0.1-0.1-0.3-0.2-0.6-0.2
		c-0.2,0-0.4,0-0.6,0.1c-0.2,0.1-0.4,0.2-0.6,0.4v4.2c0,0.3,0.1,0.5,0.4,0.6h0.1v0.1h-2.6V109z"/>
	<path d="M65.6,103c0.5,0,1,0.1,1.3,0.3s0.6,0.5,0.8,0.9c0.2,0.4,0.3,0.8,0.3,1.2c0,0.1,0,0.2,0,0.3s0,0.2,0,0.2h-3.6
		c0,0.9,0.2,1.5,0.5,1.9s0.7,0.6,1.3,0.6c0.4,0,0.7-0.1,1-0.2c0.2-0.1,0.5-0.3,0.7-0.6l0.1,0.1c-0.2,0.4-0.6,0.8-1,1
		s-0.9,0.4-1.5,0.4s-1.1-0.1-1.5-0.4c-0.4-0.2-0.8-0.6-1-1.1s-0.4-1-0.4-1.6c0-0.7,0.1-1.2,0.4-1.7s0.7-0.8,1.1-1
		C64.6,103.1,65.1,103,65.6,103z M65.5,103.3c-0.2,0-0.4,0.1-0.6,0.2s-0.3,0.4-0.4,0.7c-0.1,0.4-0.1,0.9-0.2,1.5h2.1
		c0.1-0.9,0-1.5-0.1-1.9C66.2,103.5,65.9,103.3,65.5,103.3z"/>
	<path d="M68.6,109L68.6,109l0.2-0.1c0.2,0,0.3-0.1,0.3-0.2c0.1-0.1,0.1-0.2,0.1-0.4v-3.8c0-0.2,0-0.3-0.1-0.4s-0.2-0.1-0.3-0.2
		h-0.2v-0.1l2.1-0.7l0.1,0.1l0.1,1v0.1c0.1-0.2,0.3-0.4,0.4-0.6c0.2-0.2,0.4-0.3,0.6-0.5c0.2-0.1,0.4-0.2,0.7-0.2
		c0.3,0,0.5,0.1,0.7,0.3s0.2,0.4,0.2,0.6c0,0.3-0.1,0.5-0.2,0.6c-0.2,0.1-0.3,0.2-0.6,0.2c-0.3,0-0.6-0.2-0.9-0.5l0,0
		c-0.1-0.1-0.2-0.2-0.3-0.2c-0.1,0-0.2,0-0.3,0.1c-0.1,0.1-0.1,0.2-0.2,0.3c-0.1,0.1-0.1,0.2-0.2,0.3v3.3c0,0.3,0.1,0.5,0.4,0.6
		l0.4,0.1v0.1h-3V109z"/>
</g>
<text transform="matrix(1 0 0 1 13.7628 81.2257)" style="font-family:'DMSerifDisplay-Italic'; font-size:12px;">Tony Bucher</text>
<g>
	<path d="M5.4,31.7v-0.4L7,30.9c1.1-0.2,1.6-0.9,1.6-2V6.2H5.3c-1,0-1.7,0.3-2.1,0.8C2.8,7.5,2.3,8.2,1.8,9.1l-1.4,2.8H0l0.2-6.5h23
		l0.2,6.5H23l-1.4-2.8c-0.5-0.9-0.9-1.6-1.3-2.1s-1.1-0.8-2.1-0.8h-3.4v22.7c0,1.1,0.5,1.8,1.6,2l1.6,0.4v0.4H5.4z"/>
	<path d="M32.1,32.3c-2,0-3.8-0.4-5.3-1.3c-1.5-0.8-2.6-2-3.5-3.6c-0.8-1.5-1.2-3.4-1.2-5.4s0.4-3.9,1.3-5.4s2-2.7,3.6-3.5
		c1.5-0.8,3.2-1.2,5.1-1.2c1.9,0,3.6,0.4,5.1,1.2s2.7,2,3.5,3.5c0.9,1.5,1.3,3.3,1.3,5.4s-0.4,3.9-1.2,5.5c-0.8,1.5-2,2.7-3.4,3.6
		C35.9,31.9,34.1,32.3,32.1,32.3z M32.1,31.5c0.9,0,1.7-0.3,2.2-0.8c0.6-0.5,1-1.5,1.2-2.8c0.3-1.4,0.4-3.3,0.4-5.7
		c0-2.5-0.1-4.4-0.4-5.8c-0.3-1.4-0.7-2.3-1.2-2.8c-0.6-0.5-1.3-0.8-2.2-0.8c-0.9,0-1.7,0.3-2.3,0.8c-0.6,0.5-1,1.5-1.2,2.8
		c-0.3,1.4-0.4,3.3-0.4,5.8s0.1,4.4,0.4,5.7c0.3,1.4,0.7,2.3,1.2,2.8C30.4,31.2,31.2,31.5,32.1,31.5z"/>
	<path d="M43.7,31.7v-0.4l0.6-0.2c0.9-0.3,1.4-0.9,1.4-2V16.7c0-0.6-0.1-1-0.3-1.3s-0.5-0.5-1.1-0.6l-0.6-0.2v-0.4l6.8-2.3l0.4,0.4
		l0.3,2.4c0.9-0.8,2-1.5,3.2-2s2.3-0.8,3.5-0.8c1.8,0,3.1,0.5,4.1,1.4c0.9,1,1.4,2.4,1.4,4.4v11.5c0,1,0.5,1.7,1.5,2l0.4,0.1v0.4
		h-9.4v-0.4l0.5-0.2c0.9-0.3,1.4-0.9,1.4-2V16.5c0-1.7-0.9-2.6-2.6-2.6c-1.2,0-2.4,0.6-3.8,1.8v13.6c0,1,0.5,1.7,1.4,2l0.4,0.1v0.4
		L43.7,31.7L43.7,31.7z"/>
	<path d="M69.3,41.3c-1.1,0-1.9-0.3-2.5-0.8s-0.9-1.2-0.9-2c0-0.7,0.3-1.3,0.8-1.8s1.1-0.7,1.8-0.7c0.7,0,1.2,0.1,1.7,0.4
		c0.5,0.3,0.9,0.7,1.2,1.2l0.3,0.3c0.6,0.8,1.2,0.8,1.8,0c0.2-0.4,0.5-0.9,0.8-1.6c0.3-0.7,0.7-1.5,1.1-2.6l-7.7-18.5
		c-0.2-0.5-0.4-0.9-0.6-1.2s-0.6-0.6-1-0.8l-0.7-0.3v-0.4H75v0.4l-0.8,0.3c-0.6,0.2-0.9,0.5-0.9,0.9s0.1,0.9,0.3,1.5l4.2,10.8
		l4-10.9c0.2-0.6,0.3-1.1,0.2-1.5c-0.1-0.4-0.4-0.7-1-0.9l-0.8-0.2v-0.4h5.5v0.4l-0.9,0.3c-0.6,0.2-1,0.5-1.3,0.8
		c-0.2,0.3-0.5,0.8-0.7,1.4l-6.4,17.5c-1,2.8-2.1,4.9-3.1,6.3C72.3,40.6,70.9,41.3,69.3,41.3z"/>
</g>
<g>
	<path d="M89.7,31.7v-0.4l0.7-0.3c0.5-0.2,0.9-0.5,1.1-0.8s0.3-0.7,0.3-1.3V8.1c0-0.6-0.1-1-0.3-1.3c-0.2-0.3-0.6-0.6-1.1-0.8
		l-0.7-0.3V5.4h11.5c3.2,0,5.6,0.6,7,1.8s2.2,2.7,2.2,4.5c0,1.4-0.5,2.6-1.6,3.7s-2.9,1.9-5.4,2.3c2.9,0.3,5.1,1.1,6.4,2.3
		c1.4,1.2,2,2.7,2,4.4c0,0.9-0.2,1.7-0.6,2.6s-1,1.7-1.9,2.4c-0.9,0.7-2.1,1.3-3.7,1.7c-1.5,0.4-3.5,0.7-5.9,0.7L89.7,31.7
		L89.7,31.7z M97.7,17.6h1.7c1.8,0,3.1-0.4,3.9-1.2c0.8-0.8,1.2-2.3,1.2-4.3c0-2.1-0.4-3.6-1.1-4.6c-0.7-0.9-1.9-1.4-3.5-1.4h-2.2
		V17.6z M97.7,30.9h2c2,0,3.5-0.5,4.4-1.6c1-1.1,1.5-2.7,1.5-5c0-2.1-0.5-3.6-1.4-4.6c-0.9-0.9-2.5-1.4-4.6-1.4h-1.9V30.9z"/>
	<path d="M120.1,32.3c-1,0-2-0.2-2.9-0.6s-1.5-1-2-1.9s-0.7-2.1-0.7-3.5l0.1-10.3c0-0.6-0.1-1.1-0.3-1.3c-0.2-0.3-0.5-0.5-1-0.6
		l-0.5-0.2v-0.4l7.1-1.4l0.4,0.4l-0.2,5.7v9.6c0,0.9,0.2,1.5,0.7,1.9s1.1,0.6,1.9,0.6c0.7,0,1.4-0.1,2-0.3c0.6-0.2,1.2-0.5,1.8-1
		l0.2-13c0-0.6-0.1-1-0.3-1.3c-0.2-0.3-0.5-0.4-1-0.5l-0.4-0.1v-0.4l7-1.5l0.4,0.4l-0.1,5.7V29c0,0.6,0.1,1,0.2,1.4
		c0.2,0.3,0.5,0.6,1,0.8l0.4,0.1v0.4l-7,0.4l-0.4-2.4c-0.9,0.7-1.8,1.3-2.9,1.8C122.7,32.1,121.5,32.3,120.1,32.3z"/>
	<path d="M145.2,32.3c-1.8,0-3.5-0.4-4.9-1.2c-1.5-0.8-2.6-1.9-3.5-3.4s-1.3-3.3-1.3-5.5s0.5-4,1.4-5.5s2.2-2.7,3.8-3.5
		s3.3-1.2,5.2-1.2c1.5,0,2.8,0.3,3.9,0.8c1.1,0.5,1.9,1.2,2.4,2c0.6,0.8,0.8,1.7,0.8,2.5c0,0.7-0.2,1.3-0.7,1.7
		c-0.5,0.4-1,0.6-1.8,0.6s-1.4-0.3-1.9-0.8c-0.5-0.6-0.8-1.3-0.8-2.2c0-0.6,0-1.1,0-1.5c0.1-0.4,0.1-0.8,0-1.3s-0.3-0.8-0.5-0.9
		c-0.2-0.1-0.5-0.2-0.9-0.2c-1.6,0-2.9,0.7-3.8,2.1c-0.9,1.4-1.3,3.7-1.3,6.7c0,2.7,0.5,4.7,1.5,6.2c1,1.4,2.5,2.1,4.6,2.1
		c1.3,0,2.3-0.2,3-0.7c0.8-0.5,1.5-1.1,2.2-2l0.4,0.3c-0.7,1.6-1.7,2.8-3.1,3.6C148.8,31.9,147.1,32.3,145.2,32.3z"/>
	<path d="M154.3,31.7v-0.4l0.5-0.2c1-0.3,1.4-1,1.4-2V7.8c0-0.6-0.1-1-0.3-1.2c-0.2-0.3-0.5-0.5-1.1-0.6l-0.6-0.2V5.4l7-1.7l0.6,0.4
		l-0.2,5.6v5c0.9-0.8,1.9-1.4,3-2c1.1-0.5,2.3-0.8,3.6-0.8c1.7,0,3.1,0.5,4.1,1.5s1.5,2.5,1.5,4.6v11.3c0,0.5,0.1,1,0.3,1.3
		s0.6,0.6,1.1,0.7l0.3,0.1v0.4h-9.3v-0.4l0.5-0.1c1-0.3,1.4-1,1.4-2V16.6c0-1.1-0.2-1.8-0.5-2.2c-0.4-0.4-1-0.6-1.9-0.6
		c-0.6,0-1.2,0.1-1.9,0.3s-1.4,0.6-2.1,1.2v13.9c0,1,0.5,1.7,1.4,2l0.3,0.1v0.4H154.3z"/>
	<path d="M187.4,11.9c1.7,0,3.2,0.4,4.4,1.1c1.2,0.7,2.2,1.7,2.8,2.9c0.7,1.2,1,2.6,1,4.1c0,0.3,0,0.6,0,0.9s-0.1,0.6-0.2,0.8h-11.9
		c0,2.9,0.5,4.9,1.5,6.2s2.5,1.9,4.4,1.9c1.3,0,2.4-0.2,3.2-0.6s1.6-1.1,2.3-1.9l0.4,0.4c-0.8,1.5-1.9,2.6-3.3,3.4
		c-1.4,0.8-3,1.2-4.9,1.2s-3.6-0.4-5-1.2c-1.5-0.8-2.6-2-3.4-3.5s-1.2-3.3-1.2-5.4c0-2.2,0.5-4,1.4-5.6s2.2-2.7,3.7-3.5
		C184.2,12.3,185.7,11.9,187.4,11.9z M187.3,12.7c-0.8,0-1.4,0.2-2,0.7s-1,1.3-1.3,2.5s-0.5,2.9-0.5,5h6.8c0.3-2.9,0.2-5-0.3-6.3
		C189.5,13.4,188.6,12.7,187.3,12.7z"/>
	<path d="M197.6,31.7v-0.4l0.6-0.2c0.5-0.2,0.9-0.4,1.1-0.7c0.2-0.3,0.3-0.7,0.3-1.2V16.7c0-0.6-0.1-1-0.3-1.3s-0.6-0.5-1.1-0.6
		l-0.6-0.2v-0.4l6.9-2.3l0.4,0.4l0.4,3.4V16c0.4-0.7,0.9-1.4,1.5-2.1c0.6-0.6,1.3-1.1,2-1.5s1.5-0.6,2.2-0.6c1,0,1.8,0.3,2.3,0.8
		s0.8,1.3,0.8,2.1c0,0.9-0.3,1.6-0.8,2.1s-1.1,0.7-1.9,0.7c-1.1,0-2.1-0.6-3-1.7l-0.1-0.1c-0.3-0.4-0.6-0.6-0.9-0.6
		c-0.3,0-0.7,0.1-1,0.5c-0.3,0.2-0.5,0.5-0.7,0.9c-0.2,0.3-0.3,0.7-0.5,1.1V29c0,1.1,0.5,1.7,1.4,2l1.3,0.4v0.4L197.6,31.7
		L197.6,31.7z"/>
</g>
<text transform="matrix(1 0 0 1 41.9674 66.3676)" style="font-family:'DMSerifDisplay-Italic'; font-size:12px;">Bucher</text>
<g>
	<path d="M32,126.2c0-0.2,0.1-0.3,0.2-0.5H16.7l0.1,0.9h15.5C32.1,126.5,32,126.3,32,126.2z"/>
	<path d="M17.8,125.7L17.8,125.7h-1.9l0,0c0,0.5,0.4,0.9,0.9,0.9S17.8,126.2,17.8,125.7z"/>
</g>
<g>
	<path d="M17.4,143.6c-0.5,0-0.9-0.1-1.2-0.4c-0.3-0.3-0.4-0.7-0.4-1.2v-4.1H15v-0.1h0.3c0.2-0.1,0.5-0.1,0.6-0.2
		c0.2-0.1,0.4-0.2,0.5-0.4l1-1.1h0.1v1.7h1.3v0.2h-1.4v4.3c0,0.3,0.1,0.5,0.2,0.6s0.3,0.2,0.5,0.2s0.3,0,0.4-0.1s0.3-0.2,0.4-0.3
		l0.1,0.1c-0.2,0.3-0.4,0.5-0.7,0.6C18.1,143.5,17.8,143.6,17.4,143.6z"/>
	<path d="M22.5,143.6c-0.6,0-1.1-0.1-1.6-0.4s-0.8-0.6-1-1.1s-0.4-1-0.4-1.6s0.1-1.2,0.4-1.6c0.3-0.5,0.6-0.8,1.1-1.1
		c0.5-0.2,1-0.4,1.5-0.4s1.1,0.1,1.5,0.4c0.4,0.2,0.8,0.6,1.1,1c0.3,0.5,0.4,1,0.4,1.6s-0.1,1.2-0.4,1.6c-0.2,0.5-0.6,0.8-1,1.1
		S23.1,143.6,22.5,143.6z M22.5,143.3c0.3,0,0.5-0.1,0.7-0.2c0.2-0.2,0.3-0.4,0.4-0.9c0.1-0.4,0.1-1,0.1-1.7c0-0.8,0-1.3-0.1-1.7
		s-0.2-0.7-0.4-0.9c-0.2-0.2-0.4-0.2-0.7-0.2c-0.3,0-0.5,0.1-0.7,0.2c-0.2,0.2-0.3,0.4-0.4,0.9c-0.1,0.4-0.1,1-0.1,1.7
		s0,1.3,0.1,1.7s0.2,0.7,0.4,0.9C22,143.3,22.2,143.3,22.5,143.3z"/>
	<path d="M26,143.4v-0.1h0.2c0.3-0.1,0.4-0.3,0.4-0.6v-3.8c0-0.2,0-0.3-0.1-0.4c-0.1-0.1-0.2-0.1-0.3-0.2H26v-0.1l2.1-0.7l0.1,0.1
		l0.1,0.7c0.3-0.2,0.6-0.5,0.9-0.6s0.7-0.2,1-0.2c0.5,0,0.9,0.1,1.2,0.4c0.3,0.3,0.4,0.7,0.4,1.3v3.5c0,0.3,0.2,0.5,0.5,0.6h0.1v0.1
		h-2.8v-0.1h0.2c0.3-0.1,0.4-0.3,0.4-0.6v-3.8c0-0.5-0.3-0.8-0.8-0.8c-0.4,0-0.7,0.2-1.2,0.5v4.1c0,0.3,0.1,0.5,0.4,0.6h0.1v0.1H26z
		"/>
	<path d="M33.6,146.3c-0.3,0-0.6-0.1-0.8-0.2s-0.3-0.4-0.3-0.6c0-0.2,0.1-0.4,0.2-0.5c0.2-0.1,0.3-0.2,0.5-0.2s0.4,0,0.5,0.1
		s0.3,0.2,0.4,0.4l0.1,0.1c0.2,0.2,0.4,0.2,0.5,0c0.1-0.1,0.2-0.3,0.2-0.5c0.1-0.2,0.2-0.5,0.3-0.8l-2.3-5.6
		c-0.1-0.2-0.1-0.3-0.2-0.4s-0.2-0.2-0.3-0.2l-0.2-0.1v-0.1h3v0.1l-0.2,0.1c-0.2,0.1-0.3,0.1-0.3,0.3s0,0.3,0.1,0.5l1.2,3.2l1.2-3.3
		c0.1-0.2,0.1-0.3,0.1-0.5c0-0.1-0.1-0.2-0.3-0.3l-0.3-0.1v-0.1h1.7v0.1l-0.3,0.1c-0.2,0.1-0.3,0.1-0.4,0.2
		c-0.1,0.1-0.1,0.2-0.2,0.4l-1.9,5.3c-0.3,0.8-0.6,1.5-0.9,1.9S34.1,146.3,33.6,146.3z"/>
</g>
<g>
	<path d="M41.7,144.5l-2-0.2v-0.1h0.1c0.3-0.1,0.5-0.3,0.5-0.6v-6.4c0-0.2,0-0.3-0.1-0.4s-0.2-0.1-0.3-0.2h-0.2v-0.1l2.1-0.5
		l0.1,0.1v1.7v1.2c0.3-0.2,0.6-0.3,0.9-0.4c0.3-0.1,0.6-0.1,0.9-0.1c0.5,0,0.9,0.1,1.2,0.3s0.6,0.5,0.8,1c0.2,0.4,0.3,1,0.3,1.7
		s-0.1,1.3-0.3,1.7s-0.5,0.8-0.9,1s-0.8,0.3-1.3,0.3c-0.3,0-0.6,0-0.9-0.1c-0.3-0.1-0.6-0.2-0.8-0.3L41.7,144.5z M43,144.1
		c0.3,0,0.5-0.1,0.7-0.2s0.3-0.4,0.5-0.8c0.1-0.4,0.2-0.9,0.2-1.6c0-0.7-0.1-1.2-0.2-1.6s-0.2-0.6-0.4-0.8c-0.2-0.1-0.4-0.2-0.7-0.2
		c-0.4,0-0.7,0.1-1,0.3v4.6c0.2,0.1,0.3,0.2,0.5,0.2C42.6,144.1,42.8,144.1,43,144.1z"/>
	<path d="M48.7,144.5c-0.3,0-0.6-0.1-0.9-0.2c-0.3-0.1-0.5-0.3-0.6-0.6s-0.2-0.6-0.2-1.1v-3.1c0-0.2,0-0.3-0.1-0.4s-0.2-0.1-0.3-0.2
		h-0.1v-0.1l2.1-0.4l0.1,0.1l-0.1,1.7v2.9c0,0.3,0.1,0.4,0.2,0.6c0.1,0.1,0.3,0.2,0.6,0.2s0.4,0,0.6-0.1c0.2-0.1,0.4-0.2,0.5-0.3
		v-3.9c0-0.2,0-0.3-0.1-0.4c-0.1-0.1-0.2-0.1-0.3-0.2H50v-0.1l2.1-0.5l0.1,0.1v1.7v3.3c0,0.2,0,0.3,0.1,0.4c0,0.1,0.2,0.2,0.3,0.2
		h0.1v0.1l-2.1,0.1l-0.1-0.7c-0.3,0.2-0.6,0.4-0.9,0.5C49.5,144.5,49.1,144.5,48.7,144.5z"/>
	<path d="M56.3,144.5c-0.5,0-1-0.1-1.5-0.4c-0.4-0.2-0.8-0.6-1.1-1c-0.3-0.5-0.4-1-0.4-1.7c0-0.6,0.1-1.2,0.4-1.7
		c0.3-0.5,0.7-0.8,1.1-1.1c0.5-0.2,1-0.4,1.6-0.4c0.5,0,0.9,0.1,1.2,0.2c0.3,0.2,0.6,0.3,0.7,0.6s0.3,0.5,0.3,0.8
		c0,0.2-0.1,0.4-0.2,0.5s-0.3,0.2-0.5,0.2s-0.4-0.1-0.6-0.3c-0.1-0.2-0.2-0.4-0.3-0.7c0-0.2,0-0.3,0-0.5c0-0.1,0-0.2,0-0.4
		c0-0.1-0.1-0.2-0.1-0.3c-0.1,0-0.2-0.1-0.3-0.1c-0.5,0-0.9,0.2-1.1,0.6c-0.3,0.4-0.4,1.1-0.4,2c0,0.8,0.1,1.4,0.4,1.9
		s0.8,0.6,1.4,0.6c0.4,0,0.7-0.1,0.9-0.2c0.2-0.1,0.5-0.3,0.7-0.6l0.1,0.1c-0.2,0.5-0.5,0.8-0.9,1.1S56.9,144.5,56.3,144.5z"/>
	<path d="M59,144.4v-0.1h0.1c0.3-0.1,0.4-0.3,0.4-0.6v-6.4c0-0.2,0-0.3-0.1-0.4s-0.2-0.1-0.3-0.2h-0.2v-0.1l2.1-0.5l0.2,0.1v1.7v1.5
		c0.3-0.2,0.6-0.4,0.9-0.6s0.7-0.2,1.1-0.2c0.5,0,0.9,0.1,1.2,0.4c0.3,0.3,0.5,0.8,0.5,1.4v3.4c0,0.2,0,0.3,0.1,0.4
		c0.1,0.1,0.2,0.2,0.3,0.2h0.1v0.1h-2.8v-0.1h0.1c0.3-0.1,0.4-0.3,0.4-0.6V140c0-0.3-0.1-0.5-0.2-0.7c-0.1-0.1-0.3-0.2-0.6-0.2
		c-0.2,0-0.4,0-0.6,0.1c-0.2,0.1-0.4,0.2-0.6,0.4v4.2c0,0.3,0.1,0.5,0.4,0.6h0.1v0.1L59,144.4L59,144.4z"/>
	<path d="M69,138.4c0.5,0,1,0.1,1.3,0.3s0.7,0.5,0.8,0.9c0.2,0.4,0.3,0.8,0.3,1.2c0,0.1,0,0.2,0,0.3s0,0.2,0,0.2h-3.6
		c0,0.9,0.2,1.5,0.5,1.9s0.7,0.6,1.3,0.6c0.4,0,0.7-0.1,1-0.2s0.5-0.3,0.7-0.6l0.1,0.1c-0.2,0.4-0.6,0.8-1,1s-0.9,0.4-1.5,0.4
		s-1.1-0.1-1.5-0.4c-0.4-0.2-0.8-0.6-1-1.1s-0.4-1-0.4-1.6c0-0.7,0.1-1.2,0.4-1.7s0.7-0.8,1.1-1S68.5,138.4,69,138.4z M68.9,138.7
		c-0.2,0-0.4,0.1-0.6,0.2s-0.3,0.4-0.4,0.7c-0.1,0.4-0.1,0.9-0.2,1.5h2.1c0.1-0.9,0-1.5-0.1-1.9C69.6,138.8,69.3,138.7,68.9,138.7z"
		/>
	<path d="M72,144.4v-0.1h0.2c0.2,0,0.3-0.1,0.3-0.2c0.1-0.1,0.1-0.2,0.1-0.4v-3.8c0-0.2,0-0.3-0.1-0.4c-0.1-0.1-0.2-0.1-0.3-0.2H72
		v-0.1l2.1-0.7l0.1,0.1l0.1,1v0.1c0.1-0.2,0.3-0.4,0.4-0.6c0.2-0.2,0.4-0.3,0.6-0.5c0.2-0.1,0.4-0.2,0.7-0.2c0.3,0,0.5,0.1,0.7,0.3
		s0.2,0.4,0.2,0.6c0,0.3-0.1,0.5-0.2,0.6c-0.2,0.1-0.3,0.2-0.6,0.2c-0.3,0-0.6-0.2-0.9-0.5l0,0c-0.1-0.1-0.2-0.2-0.3-0.2
		c-0.1,0-0.2,0-0.3,0.1c-0.1,0.1-0.1,0.2-0.2,0.3s-0.1,0.2-0.2,0.3v3.3c0,0.3,0.1,0.5,0.4,0.6l0.4,0.1v0.1h-3V144.4z"/>
</g>
<path d="M117.5,137.7c-1.7,0-3.1-0.4-4-1.3c-1-0.9-1.4-2.2-1.4-4.1v-13.8h-2.8v-0.4l1-0.2c0.8-0.2,1.6-0.5,2.2-0.8s1.2-0.8,1.8-1.4
	l3.3-3.7h0.4l-0.1,5.6h4.5v0.8h-4.6V133c0,0.9,0.2,1.7,0.6,2.1c0.4,0.5,0.9,0.7,1.6,0.7c0.6,0,1.1-0.1,1.5-0.4
	c0.4-0.3,0.9-0.7,1.3-1.2l0.4,0.4c-0.5,0.9-1.3,1.6-2.2,2.2C120,137.4,118.8,137.7,117.5,137.7z"/>
<path d="M134.5,137.7c-2,0-3.8-0.4-5.3-1.3c-1.5-0.8-2.7-2.1-3.5-3.6c-0.8-1.6-1.2-3.4-1.2-5.5c0-2.1,0.4-3.9,1.3-5.4
	s2.1-2.7,3.6-3.6c1.5-0.8,3.2-1.3,5.1-1.3c1.9,0,3.6,0.4,5.1,1.2c1.5,0.8,2.7,2,3.6,3.5c0.9,1.5,1.3,3.4,1.3,5.5
	c0,2.1-0.4,4-1.2,5.5s-2,2.7-3.5,3.6C138.3,137.2,136.5,137.7,134.5,137.7z M134.5,136.9c0.9,0,1.7-0.3,2.3-0.8s1-1.5,1.2-2.9
	c0.3-1.4,0.4-3.3,0.4-5.8s-0.1-4.5-0.4-5.9s-0.7-2.3-1.2-2.9c-0.6-0.5-1.3-0.8-2.3-0.8c-0.9,0-1.7,0.3-2.3,0.8s-1,1.5-1.3,2.9
	s-0.4,3.3-0.4,5.9c0,2.5,0.1,4.4,0.4,5.8c0.3,1.4,0.7,2.3,1.3,2.9C132.8,136.6,133.5,136.9,134.5,136.9z"/>
<path d="M146.2,137.1v-0.4l0.6-0.2c0.9-0.3,1.4-0.9,1.4-2v-12.6c0-0.6-0.1-1-0.3-1.3s-0.6-0.5-1.1-0.6l-0.6-0.2v-0.4l6.9-2.3
	l0.4,0.4l0.3,2.4c0.9-0.8,2-1.5,3.2-2.1c1.2-0.5,2.4-0.8,3.5-0.8c1.8,0,3.1,0.5,4.1,1.5s1.4,2.4,1.4,4.4v11.6c0,1,0.5,1.7,1.5,2
	l0.4,0.1v0.4h-9.5v-0.4l0.5-0.2c0.9-0.3,1.4-1,1.4-2v-12.9c0-1.7-0.9-2.6-2.6-2.6c-1.2,0-2.5,0.6-3.9,1.8v13.7c0,1,0.5,1.7,1.4,2
	l0.4,0.1v0.4h-9.4V137.1z"/>
<path d="M172.1,146.8c-1.1,0-1.9-0.3-2.6-0.8c-0.6-0.5-0.9-1.2-0.9-2.1c0-0.8,0.3-1.4,0.8-1.8c0.5-0.5,1.1-0.7,1.8-0.7
	s1.2,0.1,1.7,0.4c0.5,0.3,0.9,0.7,1.2,1.2l0.3,0.3c0.6,0.8,1.2,0.8,1.8,0c0.2-0.4,0.5-0.9,0.8-1.6c0.3-0.7,0.7-1.5,1.1-2.6
	l-7.8-18.7c-0.2-0.5-0.4-0.9-0.6-1.2c-0.2-0.3-0.6-0.6-1-0.8l-0.7-0.3v-0.4h10v0.4l-0.8,0.3c-0.6,0.2-0.9,0.5-0.9,0.9
	s0.1,0.9,0.3,1.6l4.2,10.9l4-11c0.2-0.6,0.3-1.1,0.2-1.6c-0.1-0.4-0.4-0.7-1-0.9l-0.8-0.2v-0.4h5.6v0.4l-0.9,0.3
	c-0.6,0.2-1,0.5-1.3,0.8c-0.2,0.3-0.5,0.8-0.7,1.5l-6.5,17.7c-1,2.8-2.1,4.9-3.1,6.3C175.1,146.1,173.7,146.8,172.1,146.8z"/>
<path d="M195.1,107.3h129.3c1.2,0,2.1,1,2.1,2.1v32.7c0,1.2-1,2.1-2.1,2.1H195.1c-1.2,0-2.1-1-2.1-2.1v-32.7
	C192.9,108.2,193.9,107.3,195.1,107.3z"/>
<g>
	<path class="st0" d="M203.8,139.1l-6.8-0.5v-0.4l0.4-0.1c1-0.2,1.6-0.9,1.6-2v-21.6c0-0.6-0.1-1-0.3-1.3s-0.5-0.5-1.1-0.6l-0.6-0.2
		V112l7.2-1.7l0.5,0.4l-0.2,5.7v4.1c0.9-0.6,1.9-1.1,2.9-1.4s2.1-0.5,3.2-0.5c1.5,0,2.9,0.4,4.1,1.1c1.2,0.7,2.1,1.8,2.8,3.3
		s1,3.4,1,5.8c0,2.4-0.4,4.3-1.1,5.8c-0.8,1.5-1.8,2.7-3.1,3.5s-2.7,1.2-4.2,1.2c-1,0-2-0.1-3-0.4c-1-0.3-1.9-0.6-2.7-1.1
		L203.8,139.1z M208.2,137.8c0.9,0,1.6-0.3,2.3-0.8c0.6-0.5,1.2-1.5,1.5-2.8c0.4-1.3,0.6-3.1,0.6-5.4c0-2.3-0.2-4-0.5-5.3
		c-0.4-1.2-0.8-2.1-1.5-2.6c-0.6-0.5-1.4-0.7-2.3-0.7c-1.3,0-2.4,0.3-3.5,1v15.5c0.5,0.3,1,0.6,1.6,0.7
		C206.8,137.7,207.5,137.8,208.2,137.8z"/>
	<path class="st0" d="M227.5,139.2c-1,0-2-0.2-2.9-0.6c-0.9-0.4-1.6-1.1-2.1-2s-0.7-2.1-0.7-3.6l0.1-10.4c0-0.6-0.1-1.1-0.3-1.3
		s-0.6-0.5-1-0.6l-0.5-0.2v-0.4l7.2-1.4l0.4,0.4l-0.2,5.7v9.7c0,0.9,0.2,1.5,0.7,1.9s1.1,0.6,1.9,0.6c0.8,0,1.4-0.1,2-0.3
		s1.2-0.5,1.8-1l0.2-13.2c0-0.6-0.1-1.1-0.3-1.3c-0.2-0.3-0.5-0.4-1-0.5l-0.4-0.1v-0.4l7.1-1.5l0.4,0.4l-0.1,5.7v10.9
		c0,0.6,0.1,1,0.2,1.4c0.2,0.3,0.5,0.6,1,0.8l0.4,0.1v0.4l-7.1,0.4l-0.4-2.4c-0.9,0.7-1.8,1.3-2.9,1.8
		C230.1,138.9,228.9,139.2,227.5,139.2z"/>
	<path class="st0" d="M253,139.2c-1.8,0-3.5-0.4-5-1.2s-2.7-2-3.6-3.5c-0.9-1.5-1.3-3.4-1.3-5.6c0-2.2,0.5-4,1.4-5.6
		c1-1.5,2.2-2.7,3.8-3.6c1.6-0.8,3.4-1.2,5.3-1.2c1.6,0,2.9,0.3,4,0.8c1.1,0.5,1.9,1.2,2.5,2s0.8,1.7,0.8,2.6c0,0.8-0.2,1.3-0.7,1.8
		c-0.5,0.4-1,0.6-1.8,0.6s-1.4-0.3-1.9-0.8c-0.5-0.6-0.8-1.3-0.8-2.2c0-0.6,0-1.1,0-1.5c0.1-0.4,0.1-0.8,0-1.3s-0.3-0.8-0.5-0.9
		s-0.5-0.2-0.9-0.2c-1.6,0-2.9,0.7-3.8,2.1c-0.9,1.4-1.4,3.7-1.4,6.8c0,2.7,0.5,4.8,1.5,6.2s2.6,2.2,4.7,2.2c1.3,0,2.3-0.2,3.1-0.7
		s1.5-1.1,2.3-2.1l0.4,0.3c-0.7,1.6-1.7,2.8-3.1,3.7C256.5,138.7,254.9,139.2,253,139.2z"/>
	<path class="st0" d="M262.2,138.6v-0.4l0.5-0.2c1-0.3,1.5-1,1.5-2v-21.5c0-0.6-0.1-1-0.3-1.3c-0.2-0.3-0.6-0.5-1.1-0.6l-0.6-0.2
		V112l7.1-1.7l0.6,0.4l-0.2,5.7v5c0.9-0.8,2-1.4,3-2c1.1-0.6,2.3-0.8,3.6-0.8c1.7,0,3.1,0.5,4.2,1.5c1,1,1.6,2.5,1.6,4.6V136
		c0,0.5,0.1,1,0.3,1.3c0.2,0.3,0.6,0.6,1.1,0.7l0.3,0.1v0.4h-9.4v-0.4l0.5-0.1c1-0.3,1.5-1,1.5-2.1v-12.7c0-1.1-0.2-1.8-0.5-2.2
		c-0.4-0.4-1-0.6-1.9-0.6c-0.6,0-1.2,0.1-1.9,0.3c-0.7,0.2-1.4,0.6-2.1,1.2v14c0,1,0.5,1.7,1.5,2l0.3,0.1v0.4h-9.6V138.6z"/>
	<path class="st0" d="M295.6,118.6c1.7,0,3.2,0.4,4.5,1.1c1.2,0.7,2.2,1.7,2.8,2.9c0.7,1.2,1,2.6,1,4.2c0,0.3,0,0.6,0,0.9
		s-0.1,0.6-0.2,0.8h-12c0,2.9,0.5,5,1.6,6.3c1,1.3,2.5,1.9,4.5,1.9c1.3,0,2.4-0.2,3.3-0.6c0.8-0.4,1.6-1.1,2.3-1.9l0.4,0.4
		c-0.8,1.5-1.9,2.6-3.3,3.5c-1.4,0.8-3,1.3-5,1.3c-1.9,0-3.6-0.4-5.1-1.2s-2.6-2-3.5-3.5s-1.3-3.4-1.3-5.5c0-2.2,0.5-4.1,1.5-5.6
		s2.2-2.7,3.7-3.5C292.3,119,293.9,118.6,295.6,118.6z M295.4,119.4c-0.8,0-1.4,0.2-2,0.7s-1,1.3-1.3,2.5s-0.5,2.9-0.5,5.1h6.9
		c0.3-2.9,0.2-5-0.3-6.3C297.7,120,296.8,119.4,295.4,119.4z"/>
	<path class="st0" d="M305.9,138.6v-0.4l0.6-0.2c0.5-0.2,0.9-0.4,1.1-0.7s0.3-0.7,0.3-1.3v-12.6c0-0.6-0.1-1-0.3-1.3
		c-0.2-0.3-0.6-0.5-1.1-0.6l-0.6-0.2v-0.4l6.9-2.3l0.4,0.4l0.4,3.5v0.3c0.4-0.8,0.9-1.4,1.5-2.1c0.6-0.6,1.3-1.2,2-1.6
		s1.5-0.6,2.2-0.6c1,0,1.8,0.3,2.3,0.8c0.5,0.6,0.8,1.3,0.8,2.1c0,0.9-0.3,1.6-0.8,2.1s-1.1,0.7-1.9,0.7c-1.1,0-2.1-0.6-3-1.7
		l-0.1-0.1c-0.3-0.4-0.6-0.6-0.9-0.6c-0.4,0-0.7,0.1-1,0.5c-0.3,0.2-0.5,0.5-0.7,0.9c-0.2,0.3-0.3,0.7-0.5,1.1v11.3
		c0,1.1,0.5,1.7,1.4,2l1.3,0.4v0.4h-10.3V138.6z"/>
</g>
<circle class="st1" cx="222.2" cy="27.7" r="4.7"/>
</svg>
