<?xml version="1.0" encoding="utf-8"?>
<!-- Generator: Adobe Illustrator 26.0.1, SVG Export Plug-In . SVG Version: 6.00 Build 0)  -->
<svg version="1.1" id="Слой_1" xmlns="http://www.w3.org/2000/svg" xmlns:xlink="http://www.w3.org/1999/xlink" x="0px" y="0px"
	 viewBox="0 0 226.9 43.1" style="enable-background:new 0 0 226.9 43.1;" xml:space="preserve">
<style type="text/css">
	.st0{fill:#FFFFFF;}
	.st1{fill:#20A39E;}
</style>
<g>
	<path d="M5.4,31.7v-0.4L7,30.9c1.1-0.2,1.6-0.9,1.6-2V6.2H5.3c-1,0-1.7,0.3-2.1,0.8C2.8,7.5,2.3,8.2,1.8,9.1l-1.4,2.8H0l0.2-6.5h23
		l0.2,6.5H23l-1.4-2.8c-0.5-0.9-0.9-1.6-1.3-2.1s-1.1-0.8-2.1-0.8h-3.4v22.7c0,1.1,0.5,1.8,1.6,2l1.6,0.4v0.4H5.4z"/>
	<path d="M32.1,32.3c-2,0-3.8-0.4-5.3-1.3c-1.5-0.8-2.6-2-3.5-3.6c-0.8-1.5-1.2-3.4-1.2-5.4s0.4-3.9,1.3-5.4s2-2.7,3.6-3.5
		c1.5-0.8,3.2-1.2,5.1-1.2c1.9,0,3.6,0.4,5.1,1.2s2.7,2,3.5,3.5c0.9,1.5,1.3,3.3,1.3,5.4s-0.4,3.9-1.2,5.5c-0.8,1.5-2,2.7-3.4,3.6
		C35.9,31.9,34.1,32.3,32.1,32.3z M32.1,31.5c0.9,0,1.7-0.3,2.2-0.8c0.6-0.5,1-1.5,1.2-2.8c0.3-1.4,0.4-3.3,0.4-5.7
		c0-2.5-0.1-4.4-0.4-5.8c-0.3-1.4-0.7-2.3-1.2-2.8c-0.6-0.5-1.3-0.8-2.2-0.8c-0.9,0-1.7,0.3-2.3,0.8c-0.6,0.5-1,1.5-1.2,2.8
		c-0.3,1.4-0.4,3.3-0.4,5.8s0.1,4.4,0.4,5.7c0.3,1.4,0.7,2.3,1.2,2.8C30.4,31.2,31.2,31.5,32.1,31.5z"/>
	<path d="M43.7,31.7v-0.4l0.6-0.2c0.9-0.3,1.4-0.9,1.4-2V16.7c0-0.6-0.1-1-0.3-1.3s-0.5-0.5-1.1-0.6l-0.6-0.2v-0.4l6.8-2.3l0.4,0.4
		l0.3,2.4c0.9-0.8,2-1.5,3.2-2s2.3-0.8,3.5-0.8c1.8,0,3.1,0.5,4.1,1.4c0.9,1,1.4,2.4,1.4,4.4v11.5c0,1,0.5,1.7,1.5,2l0.4,0.1v0.4
		h-9.4v-0.4l0.5-0.2c0.9-0.3,1.4-0.9,1.4-2V16.5c0-1.7-0.9-2.6-2.6-2.6c-1.2,0-2.4,0.6-3.8,1.8v13.6c0,1,0.5,1.7,1.4,2l0.4,0.1v0.4
		L43.7,31.7L43.7,31.7z"/>
	<path d="M69.3,41.3c-1.1,0-1.9-0.3-2.5-0.8s-0.9-1.2-0.9-2c0-0.7,0.3-1.3,0.8-1.8s1.1-0.7,1.8-0.7c0.7,0,1.2,0.1,1.7,0.4
		c0.5,0.3,0.9,0.7,1.2,1.2l0.3,0.3c0.6,0.8,1.2,0.8,1.8,0c0.2-0.4,0.5-0.9,0.8-1.6c0.3-0.7,0.7-1.5,1.1-2.6l-7.7-18.5
		c-0.2-0.5-0.4-0.9-0.6-1.2s-0.6-0.6-1-0.8l-0.7-0.3v-0.4H75v0.4l-0.8,0.3c-0.6,0.2-0.9,0.5-0.9,0.9s0.1,0.9,0.3,1.5l4.2,10.8
		l4-10.9c0.2-0.6,0.3-1.1,0.2-1.5c-0.1-0.4-0.4-0.7-1-0.9l-0.8-0.2v-0.4h5.5v0.4l-0.9,0.3c-0.6,0.2-1,0.5-1.3,0.8
		c-0.2,0.3-0.5,0.8-0.7,1.4l-6.4,17.5c-1,2.8-2.1,4.9-3.1,6.3C72.3,40.6,70.9,41.3,69.3,41.3z"/>
</g>
<g>
	<path d="M89.7,31.7v-0.4l0.7-0.3c0.5-0.2,0.9-0.5,1.1-0.8s0.3-0.7,0.3-1.3V8.1c0-0.6-0.1-1-0.3-1.3c-0.2-0.3-0.6-0.6-1.1-0.8
		l-0.7-0.3V5.4h11.5c3.2,0,5.6,0.6,7,1.8s2.2,2.7,2.2,4.5c0,1.4-0.5,2.6-1.6,3.7s-2.9,1.9-5.4,2.3c2.9,0.3,5.1,1.1,6.4,2.3
		c1.4,1.2,2,2.7,2,4.4c0,0.9-0.2,1.7-0.6,2.6s-1,1.7-1.9,2.4c-0.9,0.7-2.1,1.3-3.7,1.7c-1.5,0.4-3.5,0.7-5.9,0.7L89.7,31.7
		L89.7,31.7z M97.7,17.6h1.7c1.8,0,3.1-0.4,3.9-1.2c0.8-0.8,1.2-2.3,1.2-4.3c0-2.1-0.4-3.6-1.1-4.6c-0.7-0.9-1.9-1.4-3.5-1.4h-2.2
		V17.6z M97.7,30.9h2c2,0,3.5-0.5,4.4-1.6c1-1.1,1.5-2.7,1.5-5c0-2.1-0.5-3.6-1.4-4.6c-0.9-0.9-2.5-1.4-4.6-1.4h-1.9V30.9z"/>
	<path d="M120.1,32.3c-1,0-2-0.2-2.9-0.6s-1.5-1-2-1.9s-0.7-2.1-0.7-3.5l0.1-10.3c0-0.6-0.1-1.1-0.3-1.3c-0.2-0.3-0.5-0.5-1-0.6
		l-0.5-0.2v-0.4l7.1-1.4l0.4,0.4l-0.2,5.7v9.6c0,0.9,0.2,1.5,0.7,1.9s1.1,0.6,1.9,0.6c0.7,0,1.4-0.1,2-0.3c0.6-0.2,1.2-0.5,1.8-1
		l0.2-13c0-0.6-0.1-1-0.3-1.3c-0.2-0.3-0.5-0.4-1-0.5l-0.4-0.1v-0.4l7-1.5l0.4,0.4l-0.1,5.7V29c0,0.6,0.1,1,0.2,1.4
		c0.2,0.3,0.5,0.6,1,0.8l0.4,0.1v0.4l-7,0.4l-0.4-2.4c-0.9,0.7-1.8,1.3-2.9,1.8C122.7,32.1,121.5,32.3,120.1,32.3z"/>
	<path d="M145.2,32.3c-1.8,0-3.5-0.4-4.9-1.2c-1.5-0.8-2.6-1.9-3.5-3.4s-1.3-3.3-1.3-5.5s0.5-4,1.4-5.5s2.2-2.7,3.8-3.5
		s3.3-1.2,5.2-1.2c1.5,0,2.8,0.3,3.9,0.8c1.1,0.5,1.9,1.2,2.4,2c0.6,0.8,0.8,1.7,0.8,2.5c0,0.7-0.2,1.3-0.7,1.7
		c-0.5,0.4-1,0.6-1.8,0.6s-1.4-0.3-1.9-0.8c-0.5-0.6-0.8-1.3-0.8-2.2c0-0.6,0-1.1,0-1.5c0.1-0.4,0.1-0.8,0-1.3s-0.3-0.8-0.5-0.9
		c-0.2-0.1-0.5-0.2-0.9-0.2c-1.6,0-2.9,0.7-3.8,2.1c-0.9,1.4-1.3,3.7-1.3,6.7c0,2.7,0.5,4.7,1.5,6.2c1,1.4,2.5,2.1,4.6,2.1
		c1.3,0,2.3-0.2,3-0.7c0.8-0.5,1.5-1.1,2.2-2l0.4,0.3c-0.7,1.6-1.7,2.8-3.1,3.6C148.8,31.9,147.1,32.3,145.2,32.3z"/>
	<path d="M154.3,31.7v-0.4l0.5-0.2c1-0.3,1.4-1,1.4-2V7.8c0-0.6-0.1-1-0.3-1.2c-0.2-0.3-0.5-0.5-1.1-0.6l-0.6-0.2V5.4l7-1.7l0.6,0.4
		l-0.2,5.6v5c0.9-0.8,1.9-1.4,3-2c1.1-0.5,2.3-0.8,3.6-0.8c1.7,0,3.1,0.5,4.1,1.5s1.5,2.5,1.5,4.6v11.3c0,0.5,0.1,1,0.3,1.3
		s0.6,0.6,1.1,0.7l0.3,0.1v0.4h-9.3v-0.4l0.5-0.1c1-0.3,1.4-1,1.4-2V16.6c0-1.1-0.2-1.8-0.5-2.2c-0.4-0.4-1-0.6-1.9-0.6
		c-0.6,0-1.2,0.1-1.9,0.3s-1.4,0.6-2.1,1.2v13.9c0,1,0.5,1.7,1.4,2l0.3,0.1v0.4H154.3z"/>
	<path d="M187.4,11.9c1.7,0,3.2,0.4,4.4,1.1c1.2,0.7,2.2,1.7,2.8,2.9c0.7,1.2,1,2.6,1,4.1c0,0.3,0,0.6,0,0.9s-0.1,0.6-0.2,0.8h-11.9
		c0,2.9,0.5,4.9,1.5,6.2s2.5,1.9,4.4,1.9c1.3,0,2.4-0.2,3.2-0.6s1.6-1.1,2.3-1.9l0.4,0.4c-0.8,1.5-1.9,2.6-3.3,3.4
		c-1.4,0.8-3,1.2-4.9,1.2s-3.6-0.4-5-1.2c-1.5-0.8-2.6-2-3.4-3.5s-1.2-3.3-1.2-5.4c0-2.2,0.5-4,1.4-5.6s2.2-2.7,3.7-3.5
		C184.2,12.3,185.7,11.9,187.4,11.9z M187.3,12.7c-0.8,0-1.4,0.2-2,0.7s-1,1.3-1.3,2.5s-0.5,2.9-0.5,5h6.8c0.3-2.9,0.2-5-0.3-6.3
		C189.5,13.4,188.6,12.7,187.3,12.7z"/>
	<path d="M197.6,31.7v-0.4l0.6-0.2c0.5-0.2,0.9-0.4,1.1-0.7c0.2-0.3,0.3-0.7,0.3-1.2V16.7c0-0.6-0.1-1-0.3-1.3s-0.6-0.5-1.1-0.6
		l-0.6-0.2v-0.4l6.9-2.3l0.4,0.4l0.4,3.4V16c0.4-0.7,0.9-1.4,1.5-2.1c0.6-0.6,1.3-1.1,2-1.5s1.5-0.6,2.2-0.6c1,0,1.8,0.3,2.3,0.8
		s0.8,1.3,0.8,2.1c0,0.9-0.3,1.6-0.8,2.1s-1.1,0.7-1.9,0.7c-1.1,0-2.1-0.6-3-1.7l-0.1-0.1c-0.3-0.4-0.6-0.6-0.9-0.6
		c-0.3,0-0.7,0.1-1,0.5c-0.3,0.2-0.5,0.5-0.7,0.9c-0.2,0.3-0.3,0.7-0.5,1.1V29c0,1.1,0.5,1.7,1.4,2l1.3,0.4v0.4L197.6,31.7
		L197.6,31.7z"/>
</g>
<circle class="st1" cx="222.2" cy="27.7" r="4.7"/>
</svg>
