<svg id="Слой_1" data-name="Слой 1" xmlns="http://www.w3.org/2000/svg" viewBox="0 0 24.59 18.48">
  <defs>
    <style>
      .cls-1 {
        fill: #562fff;
      }
    </style>
  </defs>
  <title>testimonials-decoration-blue</title>
  <g>
    <path class="cls-1" d="M10.11,2Q8.5,3,7.51,3.63a12,12,0,0,0-2,1.75A7.45,7.45,0,0,0,4,7.51a10,10,0,0,0-.72,2.91H5a5,5,0,0,1,3.33,1A3.81,3.81,0,0,1,9.5,14.48a4,4,0,0,1-1.1,2.73,3.7,3.7,0,0,1-3,1.25,4.65,4.65,0,0,1-4.2-1.93A9.1,9.1,0,0,1,0,11.46a8.57,8.57,0,0,1,1-4,14.31,14.31,0,0,1,2.28-3.3,16.75,16.75,0,0,1,3-2.49L8.91,0Z" transform="translate(0.02)"/>
    <path class="cls-1" d="M24.57,2Q23,3,22,3.63a12,12,0,0,0-2,1.75A7.44,7.44,0,0,0,18.5,7.51a10,10,0,0,0-.72,2.91H19.4a5,5,0,0,1,3.33,1,3.81,3.81,0,0,1,1.21,3.06,4,4,0,0,1-1.08,2.68,3.7,3.7,0,0,1-3,1.25,4.65,4.65,0,0,1-4.2-1.93,9.09,9.09,0,0,1-1.27-5.07,8.57,8.57,0,0,1,1-4,14.35,14.35,0,0,1,2.35-3.25,16.72,16.72,0,0,1,3-2.49L23.37,0Z" transform="translate(0.02)"/>
  </g>
</svg>
